<svg id="Outline" xmlns="http://www.w3.org/2000/svg" version="1.1" viewBox="0 0 48 48"><path d="M19.236,28h2.764c.553,0,1-.447,1-1s-.447-1-1-1h-1v-1c0-.553-.447-1-1-1s-1,.447-1,1v1.024c-1.121.12-2,1.06-2,2.212,0,.852.474,1.617,1.236,2l2.632,1.315c.081.041.132.122.132.212,0,.13-.106.236-.236.236h-2.764c-.553,0-1,.447-1,1s.447,1,1,1h1v1c0,.553.447,1,1,1s1-.447,1-1v-1.024c1.121-.12,2-1.06,2-2.212,0-.852-.474-1.617-1.236-2l-2.632-1.315c-.081-.041-.132-.122-.132-.212,0-.13.106-.236.236-.236Z"/><path d="M20,21c-4.963,0-9,4.037-9,9s4.037,9,9,9,9-4.037,9-9-4.037-9-9-9ZM20,37c-3.859,0-7-3.141-7-7s3.141-7,7-7,7,3.141,7,7-3.141,7-7,7Z"/><path d="M37.293,23.293l-.293.293v-3.586c0-.553-.447-1-1-1s-1,.447-1,1v3.586l-.293-.293c-.391-.391-1.023-.391-1.414,0s-.391,1.023,0,1.414l2,2c.195.195.451.293.707.293s.512-.098.707-.293l2-2c.391-.391.391-1.023,0-1.414s-1.023-.391-1.414,0Z"/><path d="M36,16c-.55,0-1.09.07-1.61.19-.55-.73-1.43-1.19-2.39-1.19v-2.18c1.16-.42,2-1.52,2-2.82v-2c0-1.65-1.35-3-3-3H9c-1.65,0-3,1.35-3,3v2c0,1.3.84,2.4,2,2.82v2.18c-1.65,0-3,1.35-3,3v22c0,1.65,1.35,3,3,3h24c1.65,0,3-1.35,3-3v-10.08c.33.05.66.08,1,.08,3.86,0,7-3.14,7-7s-3.14-7-7-7ZM8,8c0-.55.45-1,1-1h22c.55,0,1,.45,1,1v2c0,.55-.45,1-1,1H9c-.55,0-1-.45-1-1v-2ZM30,13v2H10v-2h20ZM33,40c0,.55-.45,1-1,1H8c-.55,0-1-.45-1-1v-22c0-.55.45-1,1-1h24c.11,0,.22.02.32.06-1.99,1.23-3.32,3.43-3.32,5.94,0,2.78,1.64,5.19,4,6.31v10.69ZM36,28c-2.76,0-5-2.24-5-5s2.24-5,5-5,5,2.24,5,5-2.24,5-5,5Z"/></svg>