<svg id="Outline" xmlns="http://www.w3.org/2000/svg" version="1.1" viewBox="0 0 48 48"><path d="M33.079,34.552c-.352-.353-.908-.393-1.307-.094-1.731,1.297-3.776,2.145-5.915,2.451-.492.071-.858.493-.858.99v4.042c0,.284.121.556.333.745.184.165.422.255.667.255.037,0,.073-.002.11-.006,3.562-.396,6.93-1.792,9.741-4.04.222-.178.358-.441.374-.726s-.09-.562-.292-.763l-2.855-2.855ZM27,40.787v-2.047c1.873-.382,3.664-1.125,5.259-2.18l1.444,1.444c-2.013,1.404-4.297,2.352-6.704,2.782Z"/><path d="M38.836,12.207c-.178-.222-.441-.357-.726-.373-.274-.011-.561.089-.762.291l-2.855,2.854c-.352.352-.392.908-.093,1.307,1.701,2.271,2.6,4.959,2.6,7.772s-.899,5.502-2.6,7.772c-.298.398-.258.955.093,1.307l2.855,2.854c.188.188.442.293.707.293.019,0,.037,0,.055-.002.284-.016.548-.151.726-.373,2.724-3.405,4.164-7.504,4.164-11.852s-1.439-8.446-4.164-11.852ZM37.947,33.763l-1.444-1.443c1.636-2.463,2.497-5.301,2.497-8.261s-.86-5.798-2.497-8.261l1.444-1.443c2.001,2.857,3.053,6.189,3.053,9.704s-1.052,6.847-3.053,9.704Z"/><path d="M22.142,36.909c-6.352-.912-11.142-6.437-11.142-12.851,0-3.129,1.104-6.097,3.128-8.458.184.185.408.408.68.68.286.285.715.372,1.09.217.374-.154.617-.52.617-.924v-5.657c0-.553-.448-1-1-1h-5.657c-.404,0-.769.243-.924.617s-.069.804.217,1.09l.724.725c-3.151,3.502-4.875,7.979-4.875,12.711,0,9.695,7.261,17.811,16.89,18.877.037.004.073.006.11.006.245,0,.483-.09.667-.255.212-.189.333-.461.333-.745v-4.042c0-.497-.366-.919-.858-.99ZM21,40.788c-8.056-1.428-14-8.432-14-16.729,0-4.533,1.768-8.804,4.979-12.024.301-.303.369-.75.203-1.118h2.333v2.332c-.081-.036-.166-.062-.255-.077-.321-.054-.641.054-.868.281-2.832,2.843-4.392,6.61-4.392,10.606,0,7.11,5.101,13.273,12,14.682v2.048Z"/><path d="M32.372,13.858c.258,0,.514-.099.708-.293l2.855-2.855c.201-.201.307-.479.292-.763s-.152-.548-.374-.726c-3.406-2.724-7.504-4.163-11.852-4.163-.552,0-1,.447-1,1v4c0,.553.448,1,1,1,2.813,0,5.501.899,7.772,2.601.179.134.39.199.599.199ZM25,7.087c3.145.181,6.119,1.215,8.705,3.024l-1.444,1.444c-2.184-1.451-4.663-2.292-7.26-2.464v-2.005Z"/></svg>