<svg version="1.1" id="Flags" xmlns="http://www.w3.org/2000/svg" xmlns:xlink="http://www.w3.org/1999/xlink" x="0px" y="0px"
 width="500px" height="500px" viewBox="0 0 500 500" enable-background="new 0 0 500 500" xml:space="preserve"><g><g><g><defs><path id="SVGID_703_" d="M53.203,141.887c119.271,48.014,238.545-41.751,357.816,6.263c0,67.499,0,134.996,0,202.494
 c-119.271-43.84-238.545,50.102-357.816,6.262C53.203,285.233,53.203,213.561,53.203,141.887z"/></defs><clipPath id="SVGID_2_"><use xlink:href="#SVGID_703_" overflow="visible"/></clipPath></g></g><g><g><defs><path id="SVGID_705_" d="M53.203,141.887c119.271,48.014,238.545-41.751,357.816,6.263c0,67.499,0,134.996,0,202.494
 c-119.271-43.84-238.545,50.102-357.816,6.262C53.203,285.233,53.203,213.561,53.203,141.887z"/></defs><clipPath id="SVGID_4_"><use xlink:href="#SVGID_705_" overflow="visible"/></clipPath><g clip-path="url(#SVGID_4_)"><path fill="#F0B624" d="M53.203,356.906c119.271,43.84,238.545-50.102,357.816-6.262c0-67.499,0-134.996,0-202.494
 c-119.271-48.014-238.545,41.751-357.816-6.263C53.203,213.561,53.203,285.233,53.203,356.906z"/></g><g clip-path="url(#SVGID_4_)"><path fill="#2E6D48" d="M53.203,356.906c119.271,43.84,238.545-50.102,357.816-6.262c0-44.996,0-89.994,0-134.991
 c-119.271-46.622-238.545,44.535-357.816-2.087C53.203,261.346,53.203,309.126,53.203,356.906z"/></g><g clip-path="url(#SVGID_4_)"><path fill="#AF2237" d="M53.203,356.906c119.271,43.84,238.545-50.102,357.816-6.262c0-22.502,0-45.003,0-67.504
 c-119.271-45.23-238.545,47.319-357.816,2.088C53.203,309.121,53.203,333.013,53.203,356.906z"/></g></g></g><g><g><defs><path id="SVGID_707_" d="M53.203,141.887c119.271,48.014,238.545-41.751,357.816,6.263c0,67.499,0,134.996,0,202.494
 c-119.271-43.84-238.545,50.102-357.816,6.262C53.203,285.233,53.203,213.561,53.203,141.887z"/></defs><clipPath id="SVGID_6_"><use xlink:href="#SVGID_707_" overflow="visible"/></clipPath></g></g></g></svg>