<svg version="1.1" id="Flags" xmlns="http://www.w3.org/2000/svg" xmlns:xlink="http://www.w3.org/1999/xlink" x="0px" y="0px"
 width="500px" height="500px" viewBox="0 0 500 500" enable-background="new 0 0 500 500" xml:space="preserve"><g><g><g><defs><path id="SVGID_61_" d="M55.355,141.08c119.281,48.008,238.562-41.746,357.844,6.262c0,67.489,0,134.979,0,202.468
 c-119.281-43.833-238.562,50.095-357.844,6.262C55.355,284.407,55.355,212.744,55.355,141.08z"/></defs><clipPath id="SVGID_2_"><use xlink:href="#SVGID_61_" overflow="visible"/></clipPath><g clip-path="url(#SVGID_2_)"><defs><path id="SVGID_63_" d="M55.355,141.08c119.281,48.008,238.562-41.746,357.844,6.262c0,67.489,0,134.979,0,202.468
 c-119.281-43.833-238.562,50.095-357.844,6.262C55.355,284.407,55.355,212.744,55.355,141.08z"/></defs><clipPath id="SVGID_4_"><use xlink:href="#SVGID_63_" overflow="visible"/></clipPath></g></g></g><g><g><defs><path id="SVGID_65_" d="M55.355,141.08c119.281,48.008,238.562-41.746,357.844,6.262c0,67.489,0,134.979,0,202.468
 c-119.281-43.833-238.562,50.095-357.844,6.262C55.355,284.407,55.355,212.744,55.355,141.08z"/></defs><clipPath id="SVGID_6_"><use xlink:href="#SVGID_65_" overflow="visible"/></clipPath><g clip-path="url(#SVGID_6_)"><path fill="#C01F41" d="M55.355,248.562c119.281,45.921,238.562-45.92,357.844,0.001c0-33.741,0-67.481,0-101.222
 c-119.281-48.008-238.562,41.746-357.844-6.262C55.355,176.907,55.355,212.734,55.355,248.562z"/></g><g clip-path="url(#SVGID_6_)"><path fill="#3C9446" d="M55.355,356.071c119.281,43.833,238.562-50.095,357.844-6.262c0-33.749,0-67.498,0-101.247
 c-119.281-45.921-238.562,45.92-357.844-0.001C55.355,284.398,55.355,320.235,55.355,356.071z"/></g><g clip-path="url(#SVGID_6_)"><path fill="#010101" d="M55.355,141.08c0,71.664,0,143.328,0,214.992c67.479-11.039,134.959-64.986,202.439-111.958
 C190.314,221.783,122.835,204.066,55.355,141.08z"/></g><g clip-path="url(#SVGID_6_)"><path fill="#010101" d="M55.355,267.818c119.281,45.547,238.562-46.668,357.844-1.121c0-12.072,0-24.145,0-36.218
 c-119.281-46.293-238.562,45.174-357.844-1.119C55.355,242.18,55.355,254.999,55.355,267.818z"/></g><g clip-path="url(#SVGID_6_)"><path fill="#F5CC2B" d="M55.355,340.783c57.893-9.322,115.785-50.226,173.678-91.212c-57.893-18.76-115.785-39.34-173.678-93.24
 C55.355,217.815,55.355,279.299,55.355,340.783z"/></g><g clip-path="url(#SVGID_6_)"><path fill="#F5CC2B" d="M55.355,254.251c119.281,45.81,238.562-46.141,357.844-0.331c0-3.553,0-7.107,0-10.66
 c-119.281-46.03-238.562,45.701-357.844-0.329C55.355,246.705,55.355,250.478,55.355,254.251z"/></g><g clip-path="url(#SVGID_6_)"><path fill="#010101" d="M55.355,328.055c49.906-7.931,99.812-39.331,149.719-74.021c-49.906-17.012-99.812-38.605-149.719-84.96
 C55.355,222.067,55.355,275.062,55.355,328.055z"/></g><g clip-path="url(#SVGID_6_)"><defs><path id="SVGID_67_" d="M55.355,141.08c119.281,48.008,238.562-41.746,357.844,6.262c0,67.489,0,134.979,0,202.468
 c-119.281-43.833-238.562,50.095-357.844,6.262C55.355,284.407,55.355,212.744,55.355,141.08z"/></defs><clipPath id="SVGID_8_"><use xlink:href="#SVGID_67_" overflow="visible"/></clipPath><g clip-path="url(#SVGID_8_)"><path fill="#F5CE30" d="M97.662,279.97c0,4.058,0,8.115,0,12.173c10.336,1.742,30.662-5.833,30.662-31.944
 c0-25.711-21.691-31.619-28.139-32.878c-6.49-0.511-26.527-0.433-26.527,20.736c0,21.776,19.641,28.064,23.502,28.265
 c3.898,0.73,18.383-1.587,16.756-17.786c0,4.485-5.021,13.926-15.594,12.516c-10.52-1.475-17.09-11.187-17.09-19.087
 c0-7.964,6.357-16.893,17.484-15.267c11.117,1.583,19.299,11.916,19.299,22.086C118.016,268.884,110.125,281.674,97.662,279.97
 L97.662,279.97z"/></g><g clip-path="url(#SVGID_8_)"><path fill="#F5CE30" d="M88.594,262.622c0.199,0.171,0.398,0.343,0.598,0.514c0-0.08,4.898-10.258,18.094-16.959
 C105.605,246.958,96.773,250.45,88.594,262.622L88.594,262.622z"/></g><g clip-path="url(#SVGID_8_)"><path fill="#F5CE30" d="M89.281,263.422c-0.265-0.223-0.529-0.447-0.793-0.671c3.57-5.652,9.727-12.768,18.479-16.643l0,0
 c-2.576,1.291-4.969,2.857-7.098,4.53c2.023-1.58,4.398-3.117,7.098-4.53c0.133,0.075,0.264,0.149,0.396,0.224
 c-12.965,6.587-17.934,16.745-17.961,16.924C89.361,263.312,89.321,263.367,89.281,263.422L89.281,263.422z M93.299,256.889
 c-1.863,2.031-3.316,4.054-4.521,5.872c0.105,0.052,0.211,0.103,0.316,0.154C89.402,262.312,90.67,259.892,93.299,256.889
 L93.299,256.889z"/></g><g clip-path="url(#SVGID_8_)"><path fill="#F5CE30" d="M89.852,260.888c0,0.001-1.496-3.481-0.158-4.633c1.32-1.186,0.711,3.872,0.711,3.873
 c0.203-0.247,0.406-0.495,0.609-0.742c0,0-0.951-4.07,0.078-4.71c0.992-0.63,0.5,3.831,0.5,3.831
 c0.209-0.232,0.418-0.465,0.627-0.698c0,0-0.652-3.908,0.289-4.448c1.002-0.528,0.396,3.637,0.396,3.637
 c0.229-0.245,0.457-0.491,0.686-0.736c0,0-0.502-3.688,0.703-4.351c1.215-0.655,0.105,3.434,0.105,3.434
 c0.273-0.248,0.545-0.495,0.818-0.743c0,0-0.316-3.348,0.686-3.944c0.994-0.599,0.131,3.139,0.131,3.139
 c0.235-0.223,0.471-0.447,0.705-0.671c0,0-0.203-3.12,0.766-3.666c0.975-0.568,0.105,2.936,0.105,2.936
 c0.246-0.207,0.492-0.415,0.738-0.623c0,0-0.184-3.115,1.047-3.524c1.215-0.451-0.203,2.864-0.203,2.864
 c0.271-0.213,0.54-0.427,0.811-0.641c0-0.001,0.291-3.566,1.346-3.762c1.047-0.203-0.502,3.119-0.502,3.118
 c0.255-0.172,0.51-0.344,0.766-0.518c0,0,0.414-3.039,1.549-3.252c1.16-0.234-0.713,2.711-0.713,2.709
 c0.246-0.163,0.492-0.327,0.738-0.49c0,0,0.871-2.969,1.945-3.173c1.08-0.23-1.127,2.75-1.127,2.748
 c0.243-0.143,0.486-0.285,0.73-0.429c0,0,1.188-2.635,2.18-2.731c0.951-0.076-1.098,2.183-1.098,2.181
 c0.305-0.156,0.609-0.312,0.914-0.47c0,0.001,1.582-2.723,2.111-1.777c0.545,0.939-2.209,1.96-2.209,1.955
 c-0.299,0.148-0.598,0.296-0.896,0.444c0,0.007,3.289-1.246,3.703-0.414c0.395,0.858-4.547,0.872-4.547,0.856
 c-0.262,0.16-0.522,0.318-0.783,0.477c0,0.008,3.307-0.549,2.91,0.235c-0.412,0.824-3.676,0.258-3.676,0.251
 c-0.256,0.163-0.511,0.326-0.766,0.488c0,0.007,3.316-0.445,2.842,0.274c-0.424,0.739-3.65,0.289-3.65,0.282
 c-0.256,0.188-0.51,0.375-0.766,0.563c0,0.007,3.211-0.447,2.762,0.501c-0.502,0.946-4.16,0.424-4.16,0.415
 c-0.296,0.255-0.592,0.509-0.889,0.763c0,0.008,3.387-0.741,3.123,0.149c-0.256,0.893-4.178,0.844-4.178,0.833
 c-0.297,0.248-0.593,0.496-0.889,0.742c0,0.009,3.676-0.726,2.594,0.276c-1.125,0.995-3.703,0.917-3.703,0.914
 c-0.359,0.379-0.721,0.758-1.08,1.135c0,0.009,3.631-1.666,3.131-0.496c-0.527,1.185-4.125,1.473-4.125,1.464
 c-0.229,0.262-0.457,0.524-0.686,0.786c0,0.007,3.262-1.393,2.945-0.372c-0.316,1.023-3.791,1.61-3.791,1.601
 c-0.208,0.237-0.416,0.475-0.623,0.711c0,0.011,3.859-1.677,3.518-0.571c-0.316,1.158-3.939,1.385-3.939,1.375
 c-0.168,0.216-0.335,0.433-0.502,0.648c0,0.009,3.553-1.468,3.578-0.451c0.055,1.017-4.16,1.301-4.16,1.288
 C89.904,261.462,89.877,261.175,89.852,260.888z"/></g><g clip-path="url(#SVGID_8_)"><path fill="#F5CE30" d="M109.439,265.487c-0.199,0.116-0.398,0.231-0.598,0.346c0-0.09-4.865-11.549-18.041-21.968
 C92.428,245.119,101.268,251.098,109.439,265.487L109.439,265.487z"/></g><g clip-path="url(#SVGID_8_)"><path fill="#F5CE30" d="M108.762,266.096c-0.025-0.065-0.053-0.13-0.078-0.196c-0.053-0.198-5.023-11.66-17.988-21.905
 c0.044-0.01,0.088-0.021,0.131-0.03c-0.008-0.033-0.018-0.066-0.025-0.1c0.035-0.042,0.07-0.083,0.105-0.125
 c0.027,0.031,0.107,0.073,0.186,0.141l0,0c8.777,6.382,14.908,15.155,18.533,21.528
 C109.337,265.639,109.05,265.867,108.762,266.096L108.762,266.096z M103.582,256.805c3.289,4.436,4.969,7.898,5.338,8.766
 c0.155-0.083,0.311-0.167,0.467-0.25C107.865,262.825,105.922,259.845,103.582,256.805L103.582,256.805z"/></g><g clip-path="url(#SVGID_8_)"><path fill="#F5CE30" d="M108.182,263.411c0,0,1.521-3.053,0.186-4.572c-1.32-1.55-0.74,3.661-0.74,3.661
 c-0.193-0.301-0.387-0.604-0.58-0.906c0,0,0.951-3.794-0.08-4.719c-1.045-0.911-0.545,3.677-0.545,3.678
 c-0.201-0.289-0.404-0.578-0.605-0.867c0,0,0.658-3.717-0.318-4.522c-0.949-0.8-0.342,3.525-0.342,3.525
 c-0.246-0.31-0.492-0.62-0.738-0.93c0-0.001,0.553-3.536-0.652-4.533c-1.188-0.988-0.158,3.393-0.158,3.393
 c-0.255-0.32-0.51-0.641-0.766-0.962c0,0,0.344-3.252-0.66-4.126c-0.992-0.874-0.156,3.096-0.156,3.096
 c-0.235-0.289-0.471-0.577-0.705-0.866c0-0.001,0.211-3.06-0.818-3.883c-0.949-0.836,0,2.919,0,2.919
 c-0.264-0.278-0.527-0.556-0.791-0.834c0-0.001,0.186-3.062-1.072-3.818c-1.215-0.789,0.236,2.926,0.236,2.925
 c-0.273-0.288-0.545-0.577-0.818-0.867c0,0-0.264-3.644-1.318-4.135c-1.047-0.496,0.449,3.254,0.449,3.252
 c-0.253-0.243-0.506-0.486-0.758-0.73c0,0-0.396-3.154-1.529-3.687c-1.18-0.562,0.711,2.915,0.711,2.913
 c-0.254-0.233-0.51-0.467-0.764-0.702c0,0-0.809-3.207-1.943-3.724c-1.074-0.534,1.135,3.074,1.135,3.071
 c-0.238-0.21-0.476-0.42-0.713-0.631c0,0-1.188-2.974-2.156-3.347c-1.002-0.354,1.074,2.495,1.074,2.492
 c-0.305-0.242-0.609-0.485-0.914-0.729c0,0.002-1.559-3.173-2.104-2.378c-0.527,0.792,2.182,2.587,2.182,2.581
 c0.305,0.234,0.609,0.468,0.914,0.7c0,0.009-3.307-2.181-3.703-1.46c-0.422,0.747,4.574,2.165,4.574,2.145
 c0.255,0.232,0.51,0.464,0.766,0.695c0,0.008-3.289-1.476-2.895-0.579c0.371,0.936,3.625,1.282,3.625,1.274
 c0.264,0.236,0.527,0.472,0.791,0.707c0,0.008-3.289-1.369-2.895-0.529c0.424,0.86,3.686,1.316,3.686,1.309
 c0.262,0.261,0.521,0.521,0.783,0.779c0,0.008-3.201-1.341-2.762-0.268c0.475,1.083,4.135,1.579,4.135,1.569
 c0.312,0.34,0.627,0.679,0.939,1.017c0,0.009-3.438-1.689-3.146-0.721c0.314,0.974,4.176,2.003,4.176,1.993
 c0.291,0.33,0.58,0.658,0.871,0.986c0,0.009-3.658-1.742-2.551-0.436c1.072,1.299,3.703,1.941,3.703,1.938
 c0.353,0.478,0.704,0.954,1.057,1.429c0,0.009-3.607-2.665-3.105-1.356c0.5,1.326,4.047,2.601,4.047,2.592
 c0.246,0.327,0.492,0.654,0.738,0.98c0,0.007-3.264-2.292-2.947-1.185c0.316,1.109,3.791,2.653,3.791,2.645
 c0.203,0.293,0.404,0.587,0.607,0.88c0,0.011-3.844-2.738-3.527-1.542c0.344,1.247,3.967,2.471,3.967,2.462
 c0.167,0.262,0.334,0.524,0.502,0.785c0,0.009-3.545-2.444-3.572-1.435c-0.053,0.999,4.125,2.439,4.125,2.427
 C108.129,263.968,108.154,263.689,108.182,263.411z"/></g></g></g></g><g><g><defs><path id="SVGID_69_" d="M55.355,141.08c119.281,48.008,238.562-41.746,357.844,6.262c0,67.489,0,134.979,0,202.468
 c-119.281-43.833-238.562,50.095-357.844,6.262C55.355,284.407,55.355,212.744,55.355,141.08z"/></defs><clipPath id="SVGID_10_"><use xlink:href="#SVGID_69_" overflow="visible"/></clipPath><g clip-path="url(#SVGID_10_)"><defs><path id="SVGID_71_" d="M55.355,141.08c119.281,48.008,238.562-41.746,357.844,6.262c0,67.489,0,134.979,0,202.468
 c-119.281-43.833-238.562,50.095-357.844,6.262C55.355,284.407,55.355,212.744,55.355,141.08z"/></defs><clipPath id="SVGID_12_"><use xlink:href="#SVGID_71_" overflow="visible"/></clipPath></g></g></g></g></svg>